<?xml version="1.0" standalone="no"?><!DOCTYPE svg PUBLIC "-//W3C//DTD SVG 1.1//EN" "http://www.w3.org/Graphics/SVG/1.1/DTD/svg11.dtd"><svg t="1623834268424" class="icon" viewBox="0 0 1024 1024" version="1.1" xmlns="http://www.w3.org/2000/svg" p-id="17974" xmlns:xlink="http://www.w3.org/1999/xlink" width="200" height="200"><defs><style type="text/css"></style></defs><path d="M865.28 399.36v-5.12c0-143.36-128-261.12-281.6-261.12-112.64 0-215.04 61.44-256 158.72-40.96-35.84-97.28-51.2-143.36-25.6-51.2 25.6-76.8 87.04-61.44 153.6C61.44 450.56 25.6 512 25.6 583.68c0 107.52 87.04 189.44 189.44 189.44h25.6c15.36 0 25.6-10.24 25.6-25.6s-10.24-25.6-20.48-25.6h-30.72c-76.8 0-138.24-61.44-138.24-138.24 0-56.32 35.84-107.52 87.04-128 5.12 0 10.24-5.12 15.36-15.36 5.12-5.12 5.12-15.36 0-20.48-20.48-46.08-5.12-92.16 30.72-107.52 35.84-20.48 81.92 0 107.52 40.96 5.12 10.24 15.36 15.36 25.6 10.24 10.24 0 15.36-5.12 20.48-15.36 25.6-97.28 117.76-163.84 225.28-163.84C716.8 184.32 819.2 276.48 819.2 394.24v25.6c0 15.36 5.12 25.6 20.48 25.6 66.56 15.36 112.64 71.68 112.64 138.24 0 76.8-61.44 138.24-138.24 138.24h-30.72c-15.36 0-25.6 10.24-25.6 25.6s10.24 25.6 25.6 25.6h30.72c107.52 0 189.44-87.04 189.44-189.44-5.12-81.92-61.44-153.6-138.24-184.32z" p-id="17975"></path><path d="M527.36 517.12c-10.24-5.12-20.48-5.12-30.72 0l-102.4 76.8c-10.24 10.24-15.36 25.6-5.12 35.84 10.24 10.24 25.6 15.36 35.84 5.12l61.44-46.08v276.48c0 15.36 10.24 25.6 25.6 25.6s25.6-10.24 25.6-25.6v-276.48l61.44 46.08c5.12 5.12 10.24 5.12 15.36 5.12 5.12 0 15.36-5.12 20.48-10.24 10.24-10.24 5.12-25.6-5.12-35.84l-102.4-76.8z" p-id="17976"></path></svg>