<?xml version="1.0" standalone="no"?><!DOCTYPE svg PUBLIC "-//W3C//DTD SVG 1.1//EN" "http://www.w3.org/Graphics/SVG/1.1/DTD/svg11.dtd"><svg t="1623836090364" class="icon" viewBox="0 0 1119 1024" version="1.1" xmlns="http://www.w3.org/2000/svg" p-id="64492" xmlns:xlink="http://www.w3.org/1999/xlink" width="218.5546875" height="200"><defs><style type="text/css"></style></defs><path d="M951.917714 766.288457a60.854857 60.854857 0 0 0 54.125715-60.701257V202.942171c0-33.682286-27.413943-61.096229-61.103543-61.096228H284.913371c-33.682286 0-61.103543 27.413943-61.103542 61.096228h-35.4816c0-53.248 43.322514-96.577829 96.577828-96.577828h660.026514c53.248 0 96.577829 43.329829 96.577829 96.577828v502.645029a96.402286 96.402286 0 0 1-25.146514 64.987429 96.329143 96.329143 0 0 1-61.725257 31.100342 23.186286 23.186286 0 0 1-1.733486 0.1024l-0.987429-35.488914z" p-id="64493"></path><path d="M827.925943 915.573029H359.789714l-199.855543-0.387658a19.675429 19.675429 0 0 1-1.733485-0.1024 96.329143 96.329143 0 0 1-61.732572-31.100342 96.3584 96.3584 0 0 1-25.146514-64.987429v-502.637714c0-53.248 43.329829-96.577829 96.585143-96.577829h660.026514c53.255314 0 96.577829 43.329829 96.577829 96.577829v215.208228l-0.021943 0.782629c-0.021943 0.475429-1.872457 49.364114 14.782171 81.546971a17.744457 17.744457 0 1 1-31.517257 16.318172c-20.319086-39.299657-18.936686-93.184-18.724571-98.998857V316.357486c0-33.682286-27.413943-61.096229-61.103543-61.096229H167.906743c-33.6896 0-61.103543 27.413943-61.103543 61.096229v502.637714a60.854857 60.854857 0 0 0 54.125714 60.701257l198.897372 0.394972h468.106971c33.682286 0 61.103543-27.406629 61.103543-61.096229l-0.373029-89.409829c-0.095086-1.660343-1.506743-18.651429-18.651428-40.5504l-0.146286-0.168228-20.728686-27.201829-111.850057-148.0192c-0.402286-0.519314-37.215086-48.522971-82.3296-43.439543-36.586057 4.117943-72.484571 43.095771-103.811657 112.727772-16.815543 37.339429-33.067886 65.148343-49.700571 84.970057-16.800914 20.0192-34.048 31.985371-52.721372 36.571429-41.442743 10.159543-77.341257-18.132114-115.360914-48.0768l-4.820114-3.796115c-44.426971-34.911086-65.609143-26.938514-151.0912 56.861257a17.744457 17.744457 0 1 1-24.839315-25.336685c44.522057-43.651657 73.991314-69.397943 102.187886-80.427886 31.831771-12.448914 61.3376-5.968457 95.656229 20.999314l4.864 3.818057c32.373029 25.490286 60.328229 47.520914 84.955428 41.472 24.451657-5.9904 50.863543-40.184686 78.511543-101.639314 37.354057-83.002514 81.912686-127.8976 132.4544-133.456457 65.316571-7.175314 112.427886 54.776686 114.402743 57.417143l111.7696 147.894857 20.604343 27.040914c25.080686 32.087771 26.082743 58.821486 26.119314 61.769143v0.117029l0.365714 89.7536c0 53.357714-43.3152 96.687543-96.577828 96.687543z" p-id="64494"></path><path d="M311.822629 490.371657c-40.389486 0-73.245257-32.855771-73.245258-73.245257s32.863086-73.245257 73.245258-73.245257c40.382171 0 73.245257 32.848457 73.245257 73.237943 0 40.3968-32.855771 73.252571-73.245257 73.252571z m0-111.023543a37.814857 37.814857 0 0 0-37.770972 37.770972 37.814857 37.814857 0 0 0 37.770972 37.770971 37.814857 37.814857 0 0 0 37.770971-37.770971 37.814857 37.814857 0 0 0-37.770971-37.770972z" p-id="64495"></path></svg>